<svg width="40.000000" height="40.000000" viewBox="0 0 40 40" fill="none" xmlns="http://www.w3.org/2000/svg" xmlns:xlink="http://www.w3.org/1999/xlink">
	<desc>
			Created with Pixso.
	</desc>
	<defs>
		<clipPath id="clip2_4">
			<rect id="user-avatar" width="40.000000" height="40.000000" fill="white" fill-opacity="0"/>
		</clipPath>
	</defs>
	<rect id="user-avatar" width="40.000000" height="40.000000" fill="#FFFFFF" fill-opacity="0"/>
	<g clip-path="url(#clip2_4)">
		<path id="Vector" d="M20 39.2C9.39 39.2 0.8 30.6 0.8 20C0.8 9.39 9.39 0.79 20 0.79C30.6 0.79 39.2 9.39 39.2 20C39.2 30.6 30.6 39.2 20 39.2Z" stroke="#FFFFFF" stroke-opacity="1.000000" stroke-width="2.000000"/>
		<path id="Vector" d="M23.94 28.42C23.82 27.13 23.87 26.23 23.87 25.05C24.45 24.74 25.5 22.79 25.68 21.14C26.14 21.1 26.86 20.65 27.07 18.88C27.19 17.94 26.73 17.4 26.46 17.23C27.2 14.99 28.75 8.03 23.58 7.32C23.05 6.38 21.69 5.91 19.92 5.91C12.84 6.04 11.98 11.26 13.53 17.23C13.26 17.4 12.8 17.94 12.92 18.88C13.13 20.65 13.85 21.1 14.31 21.14C14.49 22.79 15.58 24.74 16.16 25.05C16.16 26.23 16.21 27.13 16.09 28.42C15.08 31.13 9.9 31.34 6.91 33.96C10.04 37.1 15.1 39.35 20.44 39.35C25.79 39.35 32.07 35.13 33.12 33.98C30.15 31.34 24.95 31.14 23.94 28.42Z" fill="#000000" fill-opacity="1.000000" fill-rule="nonzero"/>
	</g>
</svg>
